<svg height="100px" width="100px" viewBox="0 0 88 88" version="1.1" xmlns="http://www.w3.org/2000/svg" xmlns:xlink="http://www.w3.org/1999/xlink">
  <style>
    path {
      fill: #000000;
    }
    @media (prefers-color-scheme: dark) {
      path {
        fill: #ffffff;
      }
    }
  </style>
  <title>OK:Design</title><path d="M43.9998494,9.03895997 C24.7224594,9.03895997 9.03895997,24.7224594 9.03895997,44.0001506 C9.03895997,63.2775406 24.7224594,78.96104 43.9998494,78.96104 C63.2775406,78.96104 78.96104,63.2775406 78.96104,44.0001506 C78.96104,24.7224594 63.2775406,9.03895997 43.9998494,9.03895997 Z M43.9998494,88 C19.7383769,88 0,68.2616231 0,44.0001506 C0,19.7383769 19.7383769,0 43.9998494,0 C68.2616231,0 88,19.7383769 88,44.0001506 C88,68.2616231 68.2616231,88 43.9998494,88 L43.9998494,88 Z"></path><path d="M44.3724328,65 C43.1880644,65 42.0036959,64.5562934 41.1003798,63.669183 L25.3555913,48.2124435 C24.4877537,47.3604662 24,46.2050118 24,45.0001893 C24,43.7953668 24.4877537,42.6396095 25.3555913,41.7876322 L41.1003798,26.3308927 C42.9073206,24.5563691 45.8372365,24.5563691 47.6447944,26.3308927 C49.4517352,28.1051134 49.4517352,30.9814832 47.6447944,32.755401 L35.1723674,45.0001893 L47.6447944,57.2443718 C49.4517352,59.0185925 49.4517352,61.8952652 47.6447944,63.669183 C46.7411697,64.5562934 45.5568012,65 44.3724328,65"></path>
</svg>