<?xml version="1.0" standalone="no"?>
<!DOCTYPE svg PUBLIC "-//W3C//DTD SVG 20010904//EN"
 "http://www.w3.org/TR/2001/REC-SVG-20010904/DTD/svg10.dtd">
<svg version="1.0" xmlns="http://www.w3.org/2000/svg"
 width="1024.000000pt" height="1024.000000pt" viewBox="0 0 1024.000000 1024.000000"
 preserveAspectRatio="xMidYMid meet">
<metadata>
Created by potrace 1.11, written by Peter Selinger 2001-2013
</metadata>
<g transform="translate(0.000000,1024.000000) scale(0.100000,-0.100000)"
fill="#000000" stroke="none">
<path d="M4905 10230 c-1522 -65 -2930 -804 -3864 -2030 -801 -1050 -1166
-2405 -1000 -3715 204 -1613 1136 -3008 2554 -3825 143 -83 456 -234 618 -299
305 -123 723 -242 1037 -295 338 -57 393 -61 880 -61 501 0 597 8 950 76 1233
239 2313 901 3087 1891 606 774 980 1733 1063 2723 15 184 12 696 -5 881 -47
500 -157 961 -339 1424 -79 199 -254 552 -370 745 -347 576 -804 1079 -1351
1485 -720 537 -1585 876 -2485 975 -121 13 -562 38 -595 33 -5 -1 -86 -4 -180
-8z m485 -1060 c920 -64 1751 -414 2447 -1032 575 -509 1011 -1218 1217 -1978
173 -640 179 -1377 15 -2030 -131 -524 -373 -1032 -692 -1455 -166 -220 -447
-515 -647 -682 -543 -450 -1184 -753 -1860 -877 -282 -52 -393 -61 -740 -61
-342 0 -426 6 -695 52 -661 111 -1298 396 -1831 818 -862 683 -1404 1667
-1526 2770 -20 184 -17 693 5 875 62 500 191 931 406 1360 208 414 436 727
775 1065 431 429 920 739 1500 949 499 181 1088 263 1626 226z"/>
<path d="M4990 7414 c-30 -8 -84 -28 -120 -45 -60 -29 -140 -107 -1021 -988
-815 -816 -960 -965 -986 -1016 -90 -175 -82 -379 22 -540 18 -27 460 -476
981 -996 881 -879 954 -949 1014 -977 85 -40 137 -51 235 -52 154 0 258 43
371 155 107 107 154 218 154 371 0 91 -25 189 -68 264 -15 28 -307 327 -759
780 -403 404 -733 740 -733 745 0 5 333 343 739 750 590 591 744 751 765 792
104 209 63 460 -100 620 -130 128 -324 182 -494 137z"/>
</g>
</svg>
